<svg width="459" height="405" viewBox="0 0 459 405" fill="none" xmlns="http://www.w3.org/2000/svg">
<path opacity="0.34" d="M415.001 381.497L64.3688 398.29C59.9069 398.504 56.0162 394.806 55.6785 390.03C55.3409 385.255 58.6843 381.21 63.1462 380.997L413.779 364.204C418.24 363.99 422.131 367.688 422.469 372.464C422.806 377.24 419.463 381.283 415.001 381.497Z" fill="black"/>
<path d="M432.673 266.08L361.421 269.492C354.17 269.84 347.848 263.83 347.299 256.07C346.751 248.309 352.184 241.736 359.435 241.389L399.228 239.483C407.839 239.071 414.291 231.266 413.64 222.049C412.988 212.833 405.479 205.696 396.868 206.109L361.479 207.804C351.796 208.267 343.352 200.242 342.619 189.879C341.887 179.515 349.142 170.738 358.825 170.274L398.205 168.388C406.838 167.975 413.307 160.149 412.654 150.91C412 141.671 404.473 134.515 395.839 134.929L338.927 137.655L325.345 138.305C316.712 138.719 309.184 131.563 308.531 122.324C307.877 113.085 314.346 105.259 322.979 104.846L338.389 104.108C347.021 103.694 353.49 95.8688 352.837 86.6295C352.184 77.3901 344.656 70.2349 336.023 70.6484L327.263 71.0679L325.796 71.1382L232.764 75.5938L229.6 75.7454L132.429 80.3992L110.154 81.466C101.521 81.8795 95.0519 89.705 95.7052 98.9443C96.3584 108.184 103.887 115.339 112.519 114.925L119.164 114.607C127.796 114.194 135.324 121.349 135.978 130.588C136.631 139.828 130.162 147.653 121.529 148.067L61.8819 150.923C55.2632 151.24 50.3042 157.24 50.805 164.323C51.3058 171.407 57.0774 176.892 63.6955 176.575L126.469 173.568C133.375 173.237 139.398 178.962 139.92 186.353C140.443 193.745 135.268 200.005 128.361 200.336L28.1149 205.137C19.4822 205.551 13.0131 213.376 13.6664 222.615C14.3196 231.855 21.8478 239.01 30.4805 238.596L127.602 233.945C136.234 233.532 143.762 240.686 144.416 249.926C145.069 259.165 138.6 266.991 129.967 267.404L71.3583 270.211C57.5457 270.873 47.1958 283.393 48.241 298.176C49.2862 312.959 61.3307 324.407 75.1433 323.746L149.382 320.19L182.314 318.613L200.842 317.725L351.149 310.527L435.529 306.486C445.955 305.986 453.766 296.536 452.977 285.379C452.189 274.221 443.098 265.581 432.673 266.08Z" fill="#65706C"/>
<path d="M307.879 377.953L318.071 377.465L306.466 213.329L296.274 213.817L307.879 377.953Z" fill="#2F262D"/>
<path d="M259.803 248.763C257.873 244.872 259.219 240.127 262.803 238.184C263.723 237.686 264.71 237.409 265.739 237.359C268.648 237.22 271.421 238.93 272.803 241.718L315.26 327.325L302.26 334.371L259.803 248.763Z" fill="#FC9F6F"/>
<path d="M208.504 382.713L218.696 382.225L207.092 218.089L196.899 218.577L208.504 382.713Z" fill="#2F262D"/>
<path d="M244.8 227.056C209.776 228.734 179.362 201.517 176.87 166.266C176.226 157.151 177.515 148.394 180.381 140.387C158.759 151.338 144.759 174.534 146.606 200.65C149.098 235.902 179.512 263.119 214.536 261.441C240.505 260.197 261.713 243.417 269.931 220.456C262.368 224.286 253.876 226.622 244.8 227.056Z" fill="#F2F2F2"/>
<path d="M210.934 245.958C230.11 245.04 244.576 229.031 243.245 210.201C241.913 191.371 225.289 176.851 206.112 177.77C186.936 178.688 172.47 194.697 173.801 213.527C175.132 232.357 191.757 246.877 210.934 245.958Z" fill="#3B323A"/>
<path d="M146.444 220.993L68.804 224.712C65.8324 224.854 63.2408 222.391 63.0159 219.211L62.6305 213.759C62.4056 210.579 64.6326 207.885 67.6042 207.743L145.244 204.024C148.216 203.882 150.807 206.345 151.032 209.526L151.418 214.977C151.642 218.158 149.415 220.851 146.444 220.993Z" fill="#AFAFAF"/>
<path d="M236.73 184.44C225.84 184.961 216.345 175.936 215.521 164.282L214.029 143.18C213.461 135.148 206.917 128.927 199.411 129.287L201.931 164.933C203.323 184.62 219.363 199.865 237.758 198.984L265.321 197.664L264.293 183.12L236.73 184.44Z" fill="#EF9067"/>
<path d="M233.378 72.9002C233.288 100.575 212.777 132.173 191.348 129.341C170.839 126.632 154.45 93.0422 159.603 68.7311C162.778 53.7489 173.788 43.9273 182.666 36.007C191.88 27.7879 198.058 22.2766 205.62 23.1519C220.628 24.8885 233.448 50.8945 233.378 72.9002Z" fill="#603936"/>
<path d="M210.321 152.725C209.906 152.274 206.447 148.444 205.839 147.923C203.894 141.505 200.38 134.488 200.413 126.09C195.923 122.974 188.594 119.058 180.668 120.043C178.302 120.337 175.868 121.07 174.613 121.448C167.821 123.492 163.634 126.389 162.295 127.358C160.443 128.699 159.517 129.369 158.502 130.631C155.672 134.146 155.223 138.317 155.006 140.781C153.126 162.036 157.2 182.172 157.64 183.861C158.467 187.042 159.521 189.874 159.521 189.874C161.299 194.571 163.169 197.496 163.729 198.817C166.465 205.277 172.597 218.777 178.788 229.016C182.773 229.499 192.085 233.312 197.876 230.849C206.723 227.087 224.861 218.749 231.457 216.922C222.407 207.328 213.976 196.512 211.034 183.063C210.269 179.567 209.594 176.136 209 172.778C209.772 172.321 214.397 169.475 214.999 164.206C215.65 158.516 211.191 153.67 210.321 152.725Z" fill="#F05364"/>
<path d="M188.985 140.997C193.813 139.289 196.071 132.967 194.028 126.878C191.985 120.788 186.415 117.236 181.587 118.944C176.759 120.652 174.501 126.974 176.544 133.064C178.587 139.154 184.157 142.706 188.985 140.997Z" fill="#EF9067"/>
<path d="M182.848 116.264C186.504 124.015 191.864 126.468 195.308 128.372C202.012 132.078 213.939 131.117 213.939 131.117C214.154 128.303 214.392 125.869 216.052 121.16C218.508 114.193 221.14 112.424 224.454 106.063C229.453 96.465 231.498 85.0602 229.618 84.0265C228.242 83.2685 224.999 87.7891 222.875 90.4301C216.777 98.0103 202.714 109.516 182.848 116.264Z" fill="#603936"/>
<path d="M183.834 133.564L181.475 133.677C176.289 133.925 171.767 129.627 171.375 124.077L168.672 85.8475L187.452 84.948L190.334 125.702C190.627 129.858 187.718 133.378 183.834 133.564Z" fill="#EF9067"/>
<path d="M95.6489 388.117L105.841 387.628L94.2364 223.493L84.0443 223.981L95.6489 388.117Z" fill="#2F262D"/>
<path d="M158.333 385.115L168.525 384.626L156.921 220.491L146.729 220.979L158.333 385.115Z" fill="#494149"/>
<path d="M369.241 375.014L379.433 374.525L367.829 210.39L357.637 210.878L369.241 375.014Z" fill="#494149"/>
<path opacity="0.71" d="M168.958 89.8924C171.022 101.429 179.195 110.653 189.491 113.784L187.287 82.608L168.507 83.5074L168.958 89.8924Z" fill="#D36B46"/>
<path d="M198.219 111.879C184.428 112.54 172.402 101.11 171.358 86.3499L169.053 53.7461C168.956 52.3741 169.917 51.2116 171.199 51.1502L206.673 49.4513C213.381 49.13 219.231 54.6892 219.738 61.8686L221.3 83.958C222.343 98.7182 212.01 111.219 198.219 111.879Z" fill="#FC9F6F"/>
<path d="M221.028 80.1043C220.782 80.8172 220.162 81.3376 219.4 81.3741L208.442 81.8989C207.404 81.9486 206.496 81.0854 206.418 79.9752L205.953 73.3975C205.874 72.2866 206.655 71.3432 207.692 71.2936L218.65 70.7687C219.412 70.7322 220.101 71.19 220.446 71.8746L220.266 69.3359C219.736 69.0628 219.141 68.921 218.522 68.9507L207.563 69.4755C205.589 69.5701 204.105 71.3656 204.254 73.4788L204.719 80.0566C204.868 82.1697 206.596 83.8115 208.57 83.7169L219.528 83.1921C220.148 83.1624 220.719 82.9648 221.207 82.6429L221.028 80.1043Z" fill="#DD9883"/>
<path d="M199.08 83.2593L188.121 83.7841C186.613 83.8563 185.298 82.6065 185.184 80.992L184.719 74.4148C184.605 72.8003 185.735 71.4334 187.243 71.3611L198.201 70.8363C199.71 70.764 201.025 72.0139 201.139 73.6284L201.604 80.2056C201.718 81.8194 200.588 83.187 199.08 83.2593Z" stroke="#DD9883" stroke-width="1.81133" stroke-miterlimit="10" stroke-linecap="round" stroke-linejoin="round"/>
<path opacity="0.6" d="M187.23 90.657L184.925 58.0535C184.828 56.6815 185.789 55.5191 187.071 55.4577L207.02 46.7756C204.581 43.8144 210.58 49.2648 206.673 49.4519L171.199 51.1509C169.917 51.2122 168.956 52.3747 169.053 53.7467L171.358 86.3501C172.402 101.11 184.428 112.54 198.219 111.879C198.515 111.865 198.808 111.838 199.1 111.813C192.495 107.257 187.86 99.5666 187.23 90.657Z" fill="#EF9067"/>
<path d="M219.378 81.0711L208.42 81.596C206.912 81.6682 205.597 80.4184 205.482 78.8039L205.017 72.2269C204.903 70.6124 206.033 69.2455 207.542 69.1733L218.5 68.6484C220.008 68.5762 221.323 69.826 221.437 71.4405L221.902 78.0175C222.017 79.6314 220.887 80.9989 219.378 81.0711Z" stroke="#F6CDF7" stroke-width="1.81133" stroke-miterlimit="10" stroke-linecap="round" stroke-linejoin="round"/>
<path d="M203.768 98.0843L203.751 98.0851C200.616 98.2353 197.866 95.6379 197.629 92.2824L197.427 89.4189L208.751 88.8765L208.954 91.74C209.19 95.095 206.903 97.9342 203.768 98.0843Z" fill="#FCFAFA"/>
<path d="M191.889 75.395L196.986 75.1508" stroke="#161515" stroke-width="1.81133" stroke-miterlimit="10" stroke-linecap="round" stroke-linejoin="round"/>
<path d="M211.141 74.4729L216.237 74.2284" stroke="#161515" stroke-width="1.81133" stroke-miterlimit="10" stroke-linecap="round" stroke-linejoin="round"/>
<path d="M198.994 82.0472L188.036 82.572C186.527 82.6442 185.212 81.3944 185.098 79.78L184.633 73.2031C184.519 71.5887 185.649 70.2218 187.157 70.1496L198.116 69.6248C199.624 69.5525 200.939 70.8023 201.053 72.4167L201.518 78.9937C201.632 80.6074 200.502 81.9749 198.994 82.0472Z" stroke="#F6CDF7" stroke-width="1.81133" stroke-miterlimit="10" stroke-linecap="round" stroke-linejoin="round"/>
<path d="M202.611 25.0197C195.121 15.9217 183.422 16.6292 181.246 16.4913C179.306 16.1854 168.723 17.2006 161.121 19.7896C143.583 25.7628 132.345 43.6966 133.747 63.526L135.547 88.9847C136.753 106.048 150.013 126.21 165.513 130.91C174.095 133.513 183.548 135.398 185.721 134.942C172.961 113.214 173.564 100.037 176.143 92.1871C182.43 73.0468 204.721 72.6153 208.743 51.4809C208.869 50.8145 211.244 35.507 202.611 25.0197Z" fill="#754743"/>
<path d="M284.831 196.535C285.264 194.936 285.442 193.22 285.317 191.445C284.749 183.412 278.204 177.192 270.699 177.551C263.193 177.911 257.57 184.714 258.138 192.746C258.263 194.522 258.682 196.209 259.337 197.756L284.831 196.535Z" fill="#EF9067"/>
<path d="M241.308 199.424C239.791 193.929 233.186 189.982 225.577 190.347C217.967 190.711 211.963 195.262 211.231 200.864L241.308 199.424Z" fill="#F4EFF0"/>
<path d="M163.682 160.583C168.242 160.365 171.499 153.972 170.957 146.304C170.415 138.636 166.279 132.597 161.718 132.815C157.158 133.034 153.9 139.427 154.443 147.095C154.985 154.763 159.121 160.802 163.682 160.583Z" fill="#EF9067"/>
<path d="M190.693 187.142C179.804 187.663 170.308 178.638 169.484 166.984L167.664 141.238C167.38 137.222 164.107 134.111 160.355 134.291C156.603 134.471 153.79 137.873 154.074 141.889L155.895 167.635C157.287 187.322 173.327 202.567 191.721 201.686L219.285 200.366L218.256 185.822L204.445 186.483L190.693 187.142Z" fill="#FC9F6F"/>
<path d="M306.252 196.314L242.79 199.353C241.971 199.392 241.258 198.714 241.196 197.838C241.134 196.962 241.748 196.22 242.566 196.181L306.028 193.141C306.847 193.102 307.56 193.781 307.622 194.657C307.684 195.532 307.07 196.274 306.252 196.314Z" fill="white"/>
<path d="M306.14 194.728L242.678 197.767C242.131 197.794 241.636 197.495 241.346 197.035C241.235 197.275 241.176 197.548 241.196 197.838C241.258 198.715 241.972 199.393 242.79 199.353L306.252 196.314C307.071 196.275 307.684 195.533 307.622 194.657C307.601 194.367 307.504 194.102 307.36 193.874C307.137 194.358 306.687 194.702 306.14 194.728Z" fill="#F4EFF0"/>
<path d="M255.103 198.763L242.79 199.353C241.972 199.392 241.258 198.714 241.196 197.838C241.134 196.962 241.748 196.22 242.566 196.181L254.879 195.591C255.698 195.552 256.411 196.231 256.473 197.106C256.535 197.982 255.921 198.724 255.103 198.763ZM301.506 193.358L296.905 193.579L296.822 192.401C296.777 191.773 297.216 191.242 297.803 191.214L300.28 191.095C300.867 191.067 301.378 191.553 301.422 192.181L301.506 193.358ZM295.843 193.629L291.243 193.85L291.159 192.672C291.115 192.044 291.554 191.513 292.141 191.485L294.618 191.366C295.205 191.338 295.716 191.824 295.76 192.452L295.843 193.629ZM290.181 193.901L285.58 194.121L285.497 192.943C285.453 192.316 285.892 191.784 286.478 191.756L288.956 191.638C289.542 191.61 290.053 192.095 290.098 192.723L290.181 193.901ZM284.519 194.172L279.918 194.392L279.835 193.215C279.79 192.587 280.229 192.056 280.816 192.028L283.293 191.909C283.88 191.881 284.391 192.366 284.435 192.994L284.519 194.172ZM278.856 194.443L274.256 194.663L274.172 193.486C274.128 192.858 274.567 192.327 275.154 192.299L277.631 192.18C278.218 192.152 278.729 192.638 278.773 193.265L278.856 194.443ZM273.194 194.714L268.593 194.934L268.51 193.757C268.466 193.129 268.905 192.598 269.492 192.57L271.969 192.451C272.555 192.423 273.066 192.909 273.111 193.537L273.194 194.714ZM267.532 194.985L262.931 195.206L262.848 194.028C262.803 193.4 263.243 192.869 263.829 192.841L266.306 192.722C266.893 192.694 267.404 193.18 267.448 193.808L267.532 194.985ZM261.869 195.257L257.269 195.477L257.186 194.299C257.141 193.672 257.58 193.14 258.167 193.112L260.644 192.994C261.231 192.966 261.742 193.451 261.786 194.079L261.869 195.257ZM256.207 195.528L251.607 195.748L251.523 194.571C251.479 193.943 251.918 193.412 252.505 193.383L254.982 193.265C255.569 193.237 256.08 193.722 256.124 194.35L256.207 195.528ZM250.545 195.799L245.944 196.019L245.861 194.842C245.817 194.214 246.256 193.683 246.842 193.655L249.32 193.536C249.906 193.508 250.417 193.994 250.462 194.621L250.545 195.799Z" fill="#F4EFF0"/>
<path d="M242.79 199.353L255.103 198.763C255.922 198.724 256.535 197.982 256.473 197.106L241.196 197.838C241.258 198.714 241.972 199.392 242.79 199.353Z" fill="#E2E2E2"/>
<path d="M251.79 248.326L206.982 250.472L204.852 225.035L260.321 222.379C264.035 222.201 267.274 225.279 267.555 229.255C268.268 239.336 261.21 247.874 251.79 248.326Z" fill="#352934"/>
<path d="M222.311 342.344L242.749 241.656C243.433 238.287 246.169 235.826 249.404 235.671C250.108 235.637 250.819 235.714 251.52 235.898C255.499 236.944 258.04 241.228 257.183 245.448L236.744 346.137L222.311 342.344Z" fill="#EF9067"/>
<path d="M244.539 333.09L221.223 326.963L242.618 221.564C244.004 214.735 250.348 210.57 256.786 212.263C263.224 213.955 267.32 220.862 265.933 227.692L244.539 333.09Z" fill="#352934"/>
<path d="M346.408 164.838L251.282 169.394C249.405 169.484 247.769 167.929 247.627 165.92L254.256 92.6347C254.114 90.6264 255.52 88.9258 257.397 88.8359L352.523 84.28C354.4 84.1901 356.036 85.745 356.178 87.7534L349.549 161.039C349.691 163.047 348.285 164.748 346.408 164.838Z" fill="#CECECE"/>
<path d="M352.07 164.566L256.944 169.122C255.067 169.212 253.431 167.657 253.289 165.649L259.918 92.3631C259.776 90.3548 261.182 88.6542 263.059 88.5643L358.185 84.0084C360.062 83.9185 361.698 85.4735 361.84 87.4818L355.211 160.767C355.353 162.776 353.947 164.476 352.07 164.566Z" fill="#F4EFF0"/>
<path d="M324.782 191.481L313.957 149.493L300.076 150.158C298.37 150.239 297.208 151.968 297.665 153.743L307.225 190.824C307.579 192.196 306.68 193.533 305.361 193.596L296.888 194.002C295.383 194.074 294.255 195.438 294.369 197.049L308.654 196.365L308.66 196.365L321.926 195.729C323.947 195.633 325.325 193.584 324.782 191.481Z" fill="#CECECE"/>
<path d="M325.833 195.543L311.414 196.233L299.796 151.172C299.664 150.661 299.999 150.162 300.491 150.138L316.717 149.361L327.85 192.542C328.233 194.027 327.26 195.475 325.833 195.543Z" fill="#F4EFF0"/>
<path d="M308.654 196.365L311.414 196.233L310.369 192.179L307.608 192.311L308.654 196.365Z" fill="#F4EFF0"/>
<path d="M308.653 196.365L308.657 196.365C310.084 196.297 311.057 194.85 310.674 193.365L310.369 192.179L307.314 192.325L308.653 196.365ZM316.291 127.597C313.218 127.744 310.539 125.197 310.306 121.908C310.231 120.84 310.426 119.827 310.825 118.939C310.007 118.717 309.151 118.616 308.272 118.658C303.477 118.887 299.884 123.234 300.247 128.366C300.61 133.497 304.791 137.471 309.586 137.242C314.381 137.012 317.974 132.666 317.611 127.534C317.607 127.475 317.595 127.419 317.591 127.361C317.177 127.49 316.744 127.575 316.291 127.597Z" fill="#CECECE"/>
<path d="M257.754 234.092L212.055 249.506C199.602 253.682 186.1 244.686 178.788 229.016L249.978 209.762C256.204 207.674 262.992 211.428 265.139 218.147C267.287 224.866 263.98 232.004 257.754 234.092Z" fill="#3B323A"/>
<path d="M310.044 307.609L289.044 318.99L244.434 229.041C241.313 222.746 243.482 215.095 249.281 211.953C255.08 208.811 262.312 211.365 265.434 217.66L310.044 307.609Z" fill="#3B323A"/>
<path d="M141.728 221.219L384.211 209.605C387.182 209.463 389.409 206.769 389.184 203.589L388.799 198.138C388.574 194.957 385.983 192.494 383.011 192.636L140.529 204.25C137.557 204.392 135.33 207.086 135.555 210.266L135.94 215.717C136.166 218.898 138.757 221.361 141.728 221.219Z" fill="#F2F2F2"/>
<path d="M347.585 335.409L300.077 347.111C298.259 347.559 296.386 346.382 295.863 344.49L295.409 342.848C294.118 338.177 296.617 333.24 301.183 331.757L335.616 320.579C342.306 318.407 349.385 321.465 351.06 327.527L351.65 329.659C352.328 332.114 350.48 334.696 347.585 335.409Z" fill="#535452"/>
<path d="M349.125 330.642L296.028 343.721C295.908 343.75 295.789 343.772 295.669 343.789L295.862 344.489C296.385 346.381 298.258 347.559 300.076 347.111L347.584 335.409C350.478 334.696 352.327 332.114 351.648 329.658L351.597 329.474C350.897 330.001 350.062 330.411 349.125 330.642Z" fill="#FFFDFD"/>
<path d="M250.399 372.596L208.022 344.712C206.4 343.644 205.814 341.422 206.686 339.73L207.443 338.262C209.595 334.085 214.686 332.59 218.996 335.025L251.497 353.387C257.812 356.955 260.946 364.399 258.153 369.82L257.17 371.726C256.038 373.922 252.981 374.295 250.399 372.596Z" fill="#424441"/>
<path d="M254.679 370.493L207.316 339.328C207.209 339.258 207.107 339.182 207.009 339.104L206.686 339.73C205.814 341.422 206.4 343.644 208.022 344.712L250.399 372.596C252.981 374.294 256.038 373.922 257.17 371.726L257.255 371.561C256.395 371.393 255.515 371.043 254.679 370.493Z" fill="#CECECE"/>
<path d="M126.694 204.913L117.534 205.352C112.865 205.575 108.794 201.706 108.44 196.709L106.552 169.998L132.619 168.749L134.508 195.46C134.862 200.458 131.363 204.689 126.694 204.913Z" fill="#FF6161"/>
<path d="M109.72 173.505C103.675 173.795 99.1443 179.275 99.6018 185.746C100.059 192.216 105.331 197.227 111.377 196.937C117.423 196.648 121.953 191.167 121.496 184.697C121.038 178.227 115.767 173.216 109.72 173.505ZM111.196 194.362C106.486 194.588 102.365 190.671 102.009 185.631C101.653 180.591 105.194 176.307 109.903 176.081C114.612 175.856 118.733 179.773 119.09 184.813C119.446 189.853 115.905 194.137 111.196 194.362Z" fill="#F4A36C"/>
<path d="M126.694 204.913L117.534 205.352C112.865 205.575 108.794 201.706 108.44 196.709L106.552 169.998L132.619 168.749L134.508 195.46C134.862 200.458 131.363 204.689 126.694 204.913Z" fill="#F7BC8B"/>
<path d="M120.813 196.682C118.228 196.805 115.975 194.663 115.779 191.898L114.205 169.631L106.552 169.998L108.44 196.709C108.794 201.706 112.865 205.575 117.534 205.352L126.694 204.913C131.185 204.698 134.583 200.771 134.521 196.025L120.813 196.682Z" fill="#EFA573"/>
<path d="M229.415 199.994C229.848 198.394 230.026 196.679 229.901 194.903C229.333 186.871 222.788 180.65 215.283 181.01C207.777 181.369 202.154 188.172 202.722 196.205C202.847 197.981 203.266 199.667 203.921 201.215L229.415 199.994Z" fill="#FC9F6F"/>
<path opacity="0.77" d="M116.4 164.641C118.424 164.544 119.941 162.71 119.788 160.544C119.634 158.378 117.87 156.7 115.846 156.797C113.822 156.894 112.305 158.729 112.458 160.895C112.611 163.061 114.376 164.738 116.4 164.641Z" fill="#F2F2F2"/>
<path opacity="0.77" d="M122.327 152.55C125.364 152.405 127.64 149.652 127.411 146.401C127.181 143.15 124.532 140.632 121.495 140.778C118.457 140.923 116.181 143.677 116.411 146.927C116.641 150.178 119.29 152.696 122.327 152.55Z" fill="#F2F2F2"/>
<path d="M65.9203 117.158C74.5533 116.744 81.0221 108.919 80.3689 99.6795C79.7156 90.44 72.1876 83.2851 63.5546 83.6986C54.9217 84.112 48.4528 91.9373 49.1061 101.177C49.7594 110.416 57.2873 117.571 65.9203 117.158Z" fill="#65706C"/>
</svg>
